<svg width="504" height="304" viewBox="0 0 504 304" fill="none" xmlns="http://www.w3.org/2000/svg">
<path d="M200.141 109.281C200.141 107.615 200.803 106.018 201.981 104.84C203.159 103.662 204.756 103 206.422 103H332.047C333.713 103 335.311 103.662 336.489 104.84C337.667 106.018 338.329 107.615 338.329 109.281C338.329 116.04 338.178 122.472 337.901 128.577C342.865 129.399 347.614 131.207 351.868 133.893C356.123 136.58 359.796 140.091 362.671 144.22C365.547 148.349 367.566 153.012 368.611 157.934C369.655 162.855 369.704 167.937 368.754 172.877C367.803 177.818 365.873 182.519 363.077 186.702C360.281 190.885 356.676 194.466 352.474 197.233C348.272 200.001 343.558 201.899 338.611 202.815C333.663 203.732 328.583 203.649 323.668 202.57C313.744 225.999 300.076 237.456 288.079 240.396V267.694L305.98 272.167C308.417 272.77 310.716 273.863 312.726 275.37L335.816 292.694C336.871 293.485 337.65 294.588 338.043 295.846C338.436 297.104 338.423 298.454 338.006 299.705C337.589 300.956 336.79 302.044 335.72 302.814C334.651 303.585 333.366 304 332.047 304H206.422C205.104 304 203.819 303.585 202.75 302.814C201.68 302.044 200.88 300.956 200.463 299.705C200.047 298.454 200.034 297.104 200.427 295.846C200.82 294.588 201.599 293.485 202.654 292.694L225.743 275.37C227.753 273.863 230.052 272.77 232.49 272.167L250.391 267.694V240.396C238.394 237.456 224.726 225.999 214.802 202.558C209.884 203.642 204.8 203.73 199.848 202.816C194.897 201.902 190.178 200.005 185.972 197.238C181.766 194.47 178.157 190.888 175.358 186.702C172.559 182.516 170.628 177.812 169.677 172.867C168.727 167.922 168.777 162.837 169.825 157.912C170.873 152.987 172.897 148.322 175.777 144.192C178.658 140.063 182.337 136.552 186.597 133.868C190.857 131.184 195.612 129.381 200.581 128.565C200.285 122.141 200.138 115.712 200.141 109.281ZM201.385 141.19C194.83 142.389 189.019 146.144 185.232 151.627C181.445 157.111 179.991 163.874 181.191 170.429C182.39 176.984 186.144 182.795 191.628 186.582C197.111 190.369 203.875 191.823 210.43 190.623C206.246 177.433 203.043 161.152 201.385 141.19ZM328.052 190.623C334.608 191.823 341.371 190.369 346.854 186.582C352.338 182.795 356.092 176.984 357.292 170.429C358.491 163.874 357.037 157.111 353.25 151.627C349.463 146.144 343.653 142.389 337.097 141.19C335.427 161.164 332.223 177.433 328.052 190.623Z" fill="#FFD233"/>
<path d="M57.5 112L70.4096 151.732H112.186L78.3881 176.287L91.2977 216.018L57.5 191.463L23.7023 216.018L36.6119 176.287L2.81425 151.732H44.5904L57.5 112Z" fill="#D9D9D9" fill-opacity="0.83"/>
<path d="M106 51L113.633 74.4934L138.336 74.4934L118.351 89.0132L125.985 112.507L106 97.9868L86.0153 112.507L93.6488 89.0132L73.6641 74.4934L98.3665 74.4934L106 51Z" fill="#D9D9D9" fill-opacity="0.83"/>
<path d="M373.5 0L385.062 35.5856H422.479L392.208 57.5788L403.771 93.1644L373.5 71.1712L343.229 93.1644L354.792 57.5788L324.521 35.5856H361.938L373.5 0Z" fill="#D9D9D9" fill-opacity="0.83"/>
<path d="M439 160L453.593 204.914H500.819L462.613 232.672L477.206 277.586L439 249.828L400.794 277.586L415.387 232.672L377.181 204.914H424.407L439 160Z" fill="#D9D9D9" fill-opacity="0.83"/>
<path d="M238 36L241.592 47.0557H253.217L243.812 53.8885L247.405 64.9443L238 58.1115L228.595 64.9443L232.188 53.8885L222.783 47.0557H234.408L238 36Z" fill="#D9D9D9" fill-opacity="0.83"/>
<path d="M131 0L134.592 11.0557H146.217L136.812 17.8885L140.405 28.9443L131 22.1115L121.595 28.9443L125.188 17.8885L115.783 11.0557H127.408L131 0Z" fill="#D9D9D9" fill-opacity="0.83"/>
<path d="M238 36L241.592 47.0557H253.217L243.812 53.8885L247.405 64.9443L238 58.1115L228.595 64.9443L232.188 53.8885L222.783 47.0557H234.408L238 36Z" fill="#D9D9D9" fill-opacity="0.83"/>
<path d="M458 87L461.592 98.0557H473.217L463.812 104.889L467.405 115.944L458 109.111L448.595 115.944L452.188 104.889L442.783 98.0557H454.408L458 87Z" fill="#D9D9D9" fill-opacity="0.83"/>
<path d="M124 265L127.592 276.056H139.217L129.812 282.889L133.405 293.944L124 287.111L114.595 293.944L118.188 282.889L108.783 276.056H120.408L124 265Z" fill="#D9D9D9" fill-opacity="0.83"/>
</svg>
